<?xml version="1.0" standalone="no"?>
<!DOCTYPE svg PUBLIC "-//W3C//DTD SVG 20010904//EN"
 "http://www.w3.org/TR/2001/REC-SVG-20010904/DTD/svg10.dtd">
<svg version="1.0" xmlns="http://www.w3.org/2000/svg"
 width="1280.000000pt" height="711.000000pt" viewBox="0 0 1280.000000 711.000000"
 preserveAspectRatio="xMidYMid meet">
<metadata>
Created by potrace 1.15, written by Peter Selinger 2001-2017
</metadata>
<g transform="translate(0.000000,711.000000) scale(0.100000,-0.100000)"
fill="#000000" stroke="none">
<path d="M6395 7099 c-883 -29 -1473 -112 -1881 -265 -339 -126 -531 -289
-778 -658 -117 -175 -381 -581 -535 -823 -172 -272 -226 -342 -275 -363 -22
-10 -84 -23 -136 -30 -144 -17 -404 -66 -615 -116 -556 -132 -718 -177 -1000
-277 -55 -20 -81 -22 -295 -22 -291 -1 -289 -1 -393 -124 -50 -58 -103 -108
-167 -153 -52 -37 -114 -89 -137 -114 -85 -95 -132 -238 -118 -359 11 -102 26
-145 94 -277 l66 -128 -1 -315 c-1 -346 -1 -345 -62 -360 l-27 -7 28 -23 c156
-135 735 -335 1462 -504 482 -112 871 -170 1375 -206 339 -24 343 -25 348
-155 4 -76 3 -81 -25 -108 -26 -27 -36 -29 -128 -36 -176 -12 -481 20 -995
105 -267 44 -439 81 -750 160 -450 115 -563 151 -960 304 -262 100 -383 188
-416 300 -24 84 -10 155 46 232 38 54 40 58 21 61 -35 6 -88 -35 -113 -86 -18
-37 -23 -64 -23 -127 0 -106 18 -165 70 -223 23 -26 55 -71 71 -101 18 -34 63
-85 126 -144 89 -82 98 -93 98 -126 0 -45 42 -201 80 -296 65 -164 168 -310
284 -402 103 -82 241 -165 330 -198 154 -58 395 -93 556 -80 66 5 95 3 130
-10 49 -17 127 -15 320 10 58 7 148 19 200 25 124 15 230 39 230 52 0 11 -64
6 -245 -18 -208 -27 -380 -42 -393 -35 -44 25 99 61 238 61 178 0 902 86 1019
121 35 10 78 19 96 19 28 0 35 -5 44 -31 6 -18 11 -65 11 -106 0 -200 112
-511 244 -676 228 -286 674 -484 1046 -464 174 10 388 75 504 155 197 136 195
135 192 104 -3 -41 115 -23 667 99 51 12 63 29 20 29 -45 0 -486 -68 -551 -84
-68 -18 -128 -21 -137 -6 -3 6 -2 10 4 10 6 0 42 32 81 70 69 70 70 70 94 55
23 -15 31 -15 98 -1 40 9 183 36 318 61 303 56 428 83 449 96 20 12 -96 4
-214 -16 -44 -7 -141 -21 -215 -30 -111 -14 -298 -47 -419 -73 -22 -4 -22 -3
-11 19 7 13 49 80 93 149 44 69 93 152 108 185 48 106 129 376 160 529 16 82
34 156 40 163 16 18 28 17 137 -17 222 -68 459 -81 747 -41 83 12 267 35 410
51 317 36 666 81 880 115 88 13 240 36 338 50 97 14 257 36 355 50 97 14 251
37 342 51 91 14 233 34 315 45 261 34 608 93 767 130 67 16 91 18 107 10 37
-20 23 -28 -56 -34 -43 -3 -223 -30 -400 -59 -307 -50 -396 -73 -240 -62 127
10 568 64 641 79 88 19 86 19 86 -4 0 -15 -11 -19 -72 -24 -97 -9 -193 -24
-534 -87 -161 -29 -182 -42 -59 -34 55 3 123 10 150 15 28 5 111 14 185 20 74
6 171 17 215 25 44 9 92 18 108 21 20 4 27 1 27 -10 0 -10 -17 -17 -62 -22
-35 -5 -66 -8 -69 -7 -7 1 -280 -50 -366 -68 -29 -7 -53 -14 -53 -17 0 -10
280 7 455 28 104 12 115 12 115 -5 0 -9 -36 -18 -132 -30 -155 -20 -218 -34
-218 -48 0 -9 256 -5 370 5 16 1 26 -4 28 -14 2 -13 -9 -18 -55 -23 -101 -11
-133 -18 -133 -25 0 -12 92 -21 134 -14 44 7 86 -3 86 -21 0 -13 -75 -36 -116
-36 -9 0 -14 -6 -12 -12 3 -8 26 -14 59 -16 30 -1 64 -4 77 -7 24 -6 30 -30
10 -38 -21 -9 9 -24 58 -32 26 -3 63 -20 91 -41 179 -128 366 -187 593 -187
189 1 253 24 446 162 43 31 100 83 127 116 l48 60 57 -3 c65 -4 355 53 710
139 56 13 73 33 20 24 -115 -19 -233 -38 -374 -60 -89 -13 -202 -33 -252 -45
-51 -11 -102 -20 -114 -20 l-21 0 23 25 c19 20 33 25 70 25 26 0 98 11 161 24
63 14 204 44 314 67 390 82 274 91 -182 14 -293 -50 -318 -53 -309 -29 3 9 6
18 6 20 0 2 21 4 48 4 43 0 128 14 517 85 250 45 338 64 349 76 8 8 6 10 -9 6
-11 -4 -105 -15 -210 -26 -104 -11 -292 -37 -417 -58 -125 -20 -230 -35 -233
-31 -3 3 4 27 16 54 35 82 96 267 103 315 4 24 14 73 22 109 12 49 14 115 12
274 l-3 208 40 -5 c22 -3 82 -22 132 -41 138 -54 207 -47 243 22 6 13 15 64
19 114 8 101 4 94 101 151 72 42 102 94 108 191 6 105 -10 152 -70 206 -122
109 -128 116 -128 153 0 19 11 65 25 101 20 53 25 85 25 156 0 49 5 120 11
157 20 123 -7 150 -157 159 -163 10 -178 25 -257 240 -50 136 -127 293 -280
571 -57 104 -152 283 -210 398 -124 246 -183 343 -317 520 -466 617 -996 934
-1839 1099 -399 79 -801 124 -1531 171 -536 35 -1048 42 -1595 24z m900 -49
c872 -18 1725 -91 2218 -191 483 -98 987 -313 1285 -548 95 -75 68 -74 -123 7
-183 77 -352 119 -610 152 -638 81 -1919 99 -2512 35 -322 -35 -479 -94 -630
-238 -138 -131 -221 -278 -448 -792 -73 -165 -164 -367 -203 -450 -38 -82 -89
-195 -112 -250 -49 -116 -73 -153 -103 -160 -12 -3 -96 16 -187 43 -291 87
-306 79 -32 -19 217 -77 217 -78 215 -165 -2 -111 -32 -244 -61 -272 -21 -22
-30 -24 -84 -19 -33 3 -67 12 -75 20 -8 8 -21 43 -29 79 -19 84 -81 177 -160
241 -188 154 -719 334 -1134 386 -219 27 -556 42 -486 21 16 -5 102 -16 190
-25 390 -37 492 -55 751 -130 495 -144 726 -282 784 -470 23 -72 18 -103 -16
-116 -13 -5 -115 -9 -226 -9 -363 0 -1039 -35 -1297 -66 -214 -26 -220 -26
-365 -4 -167 26 -427 36 -545 22 -202 -26 -239 -46 -259 -144 -16 -75 -42 -99
-154 -138 -179 -62 -234 -100 -351 -244 l-39 -49 -66 6 c-36 3 -120 22 -186
41 -162 49 -608 156 -893 217 -406 85 -613 114 -651 90 -19 -12 -7 -15 179
-46 301 -50 769 -147 1080 -226 384 -96 499 -131 540 -165 l31 -27 -7 -91 c-7
-107 8 -247 37 -341 23 -74 71 -130 187 -218 l62 -47 -1 -327 c-1 -181 -4
-339 -8 -353 -7 -24 -10 -25 -82 -23 -83 3 -321 34 -479 63 -58 11 -152 26
-210 35 -58 8 -168 31 -245 50 -77 18 -167 39 -200 45 -66 13 -408 99 -520
131 -284 82 -649 218 -677 252 -16 20 -17 49 -17 267 1 135 4 259 8 275 5 26
11 31 48 36 45 6 78 29 89 61 8 28 34 21 180 -43 164 -73 167 -75 168 -130 l1
-44 -38 3 c-21 2 -77 17 -125 33 -92 32 -162 45 -188 35 -29 -11 7 -39 134
-104 136 -70 166 -78 206 -57 26 14 31 14 48 -2 10 -9 28 -31 39 -49 28 -46
79 -75 141 -80 68 -7 108 17 145 87 16 28 39 64 51 80 29 36 64 37 184 10 46
-11 133 -25 193 -30 61 -6 185 -25 275 -41 189 -34 227 -36 258 -14 63 44 -9
77 -344 155 -495 115 -537 126 -560 153 -12 14 -34 62 -49 107 -44 131 -119
189 -209 159 -53 -17 -84 -46 -117 -111 -27 -55 -32 -59 -64 -59 -18 0 -64 7
-101 16 -43 10 -85 13 -115 9 -40 -6 -51 -3 -68 14 -14 14 -20 29 -16 44 3 12
12 87 20 167 16 155 32 226 72 305 14 27 34 81 45 119 37 136 136 284 246 372
128 101 458 228 817 315 116 28 273 68 350 89 281 78 835 170 1299 216 87 8
168 19 180 24 61 23 -56 25 -391 4 -89 -6 -103 -5 -103 9 0 30 70 147 292 482
123 187 270 413 326 501 269 426 417 586 647 701 398 199 1153 323 2095 342
190 4 356 8 370 9 14 1 232 -3 485 -8z m1857 -560 c49 -14 94 -58 107 -106 15
-59 80 -614 121 -1039 11 -110 27 -265 35 -345 9 -80 15 -172 13 -204 -3 -57
-5 -60 -33 -68 -16 -5 -142 -13 -280 -18 -137 -5 -322 -14 -410 -20 -88 -5
-254 -15 -370 -20 -388 -19 -811 -44 -1005 -60 -69 -6 -219 -15 -335 -20 -488
-21 -692 -32 -720 -41 -36 -10 379 -3 565 11 69 5 235 14 370 20 318 14 552
27 830 45 124 8 362 21 530 30 168 8 334 17 370 20 36 3 166 10 289 15 287 12
277 16 307 -123 8 -38 14 -106 14 -152 0 -58 6 -102 21 -147 19 -55 22 -99 30
-368 5 -168 13 -424 19 -570 6 -146 10 -315 10 -377 0 -124 -6 -138 -63 -147
-18 -3 -104 -16 -192 -30 -372 -59 -823 -120 -1325 -181 -294 -35 -679 -84
-855 -109 -176 -25 -358 -48 -405 -51 -47 -4 -152 -15 -234 -26 -82 -10 -188
-19 -236 -19 l-87 0 -6 43 c-4 23 -11 267 -16 542 -11 542 -20 772 -36 890
-10 74 -10 74 260 90 132 8 247 15 255 15 13 0 13 1 0 10 -9 7 -111 10 -265 9
-249 -1 -285 2 -285 26 0 6 -7 26 -16 43 -8 18 -14 44 -12 59 4 33 -29 32 428
20 184 -5 299 -4 290 2 -19 11 -322 31 -541 35 -229 5 -240 13 -215 149 9 45
22 121 30 169 16 97 44 166 368 881 223 496 271 592 338 692 178 263 373 362
780 395 427 35 1472 55 1562 30z m506 -25 c425 -34 563 -50 677 -77 501 -116
926 -467 1252 -1033 111 -193 111 -337 -2 -449 -81 -81 -134 -90 -625 -106
-184 -7 -391 -16 -460 -21 -69 -5 -244 -14 -390 -19 -146 -6 -330 -14 -410
-19 -152 -9 -203 -2 -219 27 -4 9 -14 76 -20 147 -6 72 -23 227 -36 345 -13
118 -33 310 -45 425 -16 173 -48 430 -85 695 -4 25 -2 57 4 73 10 26 12 27 93
27 46 0 166 -7 266 -15z m2084 -1442 c18 -20 147 -249 224 -398 65 -126 174
-379 181 -422 7 -40 6 -40 -132 -14 -140 27 -399 45 -530 37 -161 -10 -416
-35 -522 -51 -296 -47 -519 -183 -620 -380 -56 -109 -87 -218 -123 -429 -47
-279 -80 -373 -149 -420 -117 -81 -334 -124 -390 -78 -21 17 -21 28 -31 447
-6 237 -13 535 -17 663 -6 219 -5 233 13 253 15 17 20 42 24 126 7 148 -15
138 345 158 546 30 1100 76 1115 92 3 3 -50 3 -117 -1 -79 -5 -123 -4 -123 3
0 5 26 12 58 16 31 3 91 10 132 15 41 5 138 17 215 25 206 24 258 34 301 61
48 29 32 30 -57 4 -72 -22 -302 -50 -408 -50 -35 0 -136 -7 -225 -15 -206 -19
-457 -33 -819 -45 -158 -6 -317 -14 -355 -20 -115 -16 -147 -14 -166 15 -24
36 -31 81 -15 91 8 5 120 12 249 16 380 11 766 28 890 39 63 5 243 14 400 19
422 13 492 32 556 155 52 102 54 105 68 105 7 0 20 -8 28 -17z m-10799 -539
c27 -8 20 -19 -32 -47 -66 -36 -109 -35 -146 3 -25 26 -36 30 -84 30 -82 0
-51 18 39 23 78 4 192 -1 223 -9z m8675 -6 c13 -13 14 -103 2 -153 -8 -36 -13
-27 -35 69 -11 52 -13 72 -4 82 14 17 22 17 37 2z m-8912 -53 c18 -15 18 -16
-11 -40 -36 -31 -125 -66 -183 -73 -49 -5 -53 -9 -41 -39 10 -28 50 -30 94 -7
77 41 205 70 205 46 0 -4 -14 -30 -31 -57 -18 -28 -58 -103 -91 -168 -39 -77
-64 -117 -73 -115 -8 2 -36 39 -63 83 -39 65 -58 86 -102 113 -79 47 -64 81
62 150 48 26 69 44 73 62 3 14 16 33 28 42 28 22 106 24 133 3z m11289 -260
c204 -46 347 -174 406 -365 43 -140 69 -438 69 -807 0 -196 -10 -253 -52 -288
-34 -29 -55 -31 -86 -9 -42 29 -54 71 -67 233 -20 234 -47 320 -128 409 -52
55 -135 97 -230 113 -103 17 -414 6 -537 -20 -364 -75 -479 -178 -585 -526
-160 -524 -209 -639 -317 -742 -97 -91 -228 -137 -529 -187 -440 -73 -1787
-277 -2204 -335 -428 -59 -1100 -141 -1209 -147 -134 -8 -202 4 -277 49 -62
37 -112 104 -134 181 -8 28 -24 112 -35 186 -11 74 -29 169 -40 210 -21 79
-28 188 -10 160 5 -8 21 -67 35 -130 36 -162 67 -281 72 -276 10 10 2 147 -12
196 -16 61 -20 207 -5 230 15 23 43 0 56 -46 7 -21 17 -92 22 -157 17 -188 68
-274 197 -334 54 -24 74 -28 190 -31 78 -3 194 2 290 12 168 17 1090 138 1380
181 450 66 709 107 799 126 284 60 469 158 539 287 43 78 97 228 118 325 11
50 29 103 40 118 23 33 78 54 177 69 88 13 137 36 183 87 78 86 92 127 144
407 63 334 109 452 229 570 152 153 376 225 816 266 153 14 612 4 695 -15z
m-11635 -22 c59 -22 82 -45 119 -118 45 -86 59 -201 42 -343 -13 -108 -26
-152 -48 -159 -8 -3 -7 10 4 44 24 76 22 232 -6 323 -25 83 -52 131 -106 184
-32 33 -41 36 -92 36 -48 0 -54 2 -43 15 10 12 47 28 80 34 2 1 25 -7 50 -16z
m5660 -22 c41 -30 65 -74 93 -173 40 -138 57 -467 57 -1074 0 -523 3 -498 -57
-510 -28 -5 -31 -3 -56 48 -14 29 -38 89 -53 132 -40 117 -134 251 -245 351
-79 71 -290 165 -417 185 -62 10 -39 -5 48 -30 144 -42 282 -124 391 -232 53
-52 77 -88 127 -186 73 -143 112 -243 112 -285 0 -28 -1 -29 -18 -14 -10 9
-31 45 -46 79 -106 234 -167 327 -271 411 -71 57 -236 141 -319 162 -228 57
-537 40 -799 -46 -317 -104 -520 -279 -721 -622 -79 -137 -89 -158 -167 -377
-79 -222 -156 -376 -228 -453 -99 -105 -205 -151 -377 -163 -107 -8 -160 0
-173 25 -15 26 -33 191 -26 228 3 18 14 37 23 42 10 5 62 6 122 1 136 -9 288
2 323 24 40 27 61 81 65 171 6 158 -27 178 -330 198 -166 11 -192 15 -204 32
-11 15 -14 84 -14 355 0 379 -2 368 76 390 161 45 259 351 194 605 -24 93 -54
149 -109 198 -67 61 -82 46 -27 -26 46 -61 84 -176 96 -294 9 -88 8 -108 -11
-183 -29 -121 -85 -211 -151 -246 -59 -30 -146 -11 -212 47 -43 37 -96 127
-96 161 0 22 6 26 43 32 23 3 57 9 75 12 44 9 43 -15 -3 -50 -19 -15 -35 -34
-35 -42 0 -23 62 -44 130 -44 33 0 60 -4 60 -9 0 -16 -70 -33 -107 -26 -47 9
-40 -15 11 -34 68 -26 155 19 198 102 50 99 57 293 15 412 -38 109 -88 169
-168 204 -60 25 -67 38 -27 46 64 13 72 16 57 26 -24 15 -102 10 -144 -10 -22
-10 -61 -40 -87 -67 -26 -27 -49 -46 -52 -43 -8 8 60 100 97 130 50 41 136 86
200 104 49 14 66 15 108 5 56 -14 70 -7 75 32 13 107 28 161 53 190 19 22 32
24 25 3 -5 -12 4 -15 49 -15 75 0 103 -12 109 -47 3 -15 7 -34 9 -42 3 -11
-22 -23 -94 -45 -94 -29 -117 -48 -65 -54 14 -2 126 22 250 52 123 31 258 60
299 66 116 17 182 34 187 49 4 12 -9 13 -72 8 -75 -5 -76 -5 -54 13 13 10 20
22 16 26 -4 4 -52 2 -105 -4 -221 -26 -265 -26 -311 -3 -34 17 -52 20 -95 15
-33 -4 -57 -2 -61 4 -9 15 13 20 136 33 141 15 318 7 478 -21 145 -26 244 -24
480 9 234 33 526 52 990 66 520 16 694 13 730 -14z m-5701 -75 c44 -35 135
-247 114 -266 -4 -4 -56 -10 -116 -13 -101 -5 -108 -4 -122 16 -19 27 -19 79
1 164 24 105 70 142 123 99z m12209 -33 c19 -26 14 -49 -14 -62 -22 -10 -25
-16 -20 -39 24 -105 29 -152 16 -167 -17 -21 -25 -8 -34 57 -5 32 -23 71 -57
123 -27 41 -47 80 -43 86 20 32 128 34 152 2z m-12368 -42 c-5 -11 -10 -54
-10 -96 0 -54 -3 -74 -11 -69 -22 13 3 184 27 184 2 0 0 -9 -6 -19z m3535 10
c-6 -5 -50 -16 -100 -25 -49 -9 -109 -21 -132 -26 -58 -14 -96 -13 -91 2 7 19
77 36 186 46 137 13 147 13 137 3z m-3456 -382 c21 -8 33 -19 37 -37 9 -46 20
-57 58 -60 32 -3 36 -6 30 -24 -5 -18 -3 -20 17 -16 13 3 33 9 44 13 l20 7
-20 -17 c-63 -50 -155 -15 -207 80 -39 71 -38 74 21 54z m2642 -83 c39 -37 50
-57 72 -128 24 -76 37 -171 26 -182 -2 -2 -42 9 -89 25 -75 26 -94 28 -157 23
-73 -6 -73 -6 -83 22 -13 32 -2 92 30 175 31 77 64 109 115 109 34 0 47 -7 86
-44z m-1798 -65 c61 -23 127 -142 127 -227 0 -56 8 -64 59 -64 25 0 242 -48
623 -138 344 -82 216 -78 -332 9 -201 33 -309 54 -353 71 -33 13 -57 54 -57
100 0 51 -54 155 -90 176 -66 36 -67 38 -46 61 21 23 33 25 69 12z m-590 -41
c3 -11 -2 -49 -11 -83 -15 -55 -20 -62 -44 -65 -37 -4 -60 31 -52 78 8 43 20
59 59 76 40 18 42 17 48 -6z m11405 -16 c42 -9 91 -22 108 -29 46 -19 112 -82
136 -129 39 -76 68 -204 68 -301 0 -50 4 -106 10 -125 6 -22 6 -38 0 -44 -12
-12 -129 10 -147 27 -7 7 -28 66 -48 132 -52 172 -107 272 -205 373 -44 46
-80 87 -80 92 0 23 57 25 158 4z m-11548 -24 c6 -11 9 -35 6 -53 -3 -17 -8
-135 -10 -260 -3 -126 -7 -231 -10 -235 -2 -4 -3 -40 -3 -80 0 -79 -13 -107
-37 -82 -11 11 -15 50 -17 150 -5 234 1 529 11 555 12 30 45 33 60 5z m11207
-21 c88 -17 165 -62 232 -135 58 -63 131 -162 131 -178 0 -18 -31 -1 -70 40
-58 59 -147 108 -234 130 -59 15 -81 16 -152 6 -248 -33 -454 -225 -579 -540
-55 -139 -37 -146 27 -10 103 214 212 353 348 443 98 64 151 78 278 73 93 -3
114 -8 162 -32 73 -38 168 -138 212 -223 37 -71 90 -245 108 -354 29 -184 -18
-466 -115 -676 -75 -163 -164 -273 -305 -378 -156 -116 -258 -145 -399 -110
-159 39 -256 135 -341 334 -47 112 -67 138 -57 74 11 -65 68 -188 122 -261 90
-123 193 -182 335 -190 94 -5 170 12 286 63 74 33 72 10 -3 -50 -95 -75 -257
-138 -305 -120 -9 4 -26 1 -38 -5 -16 -9 -25 -8 -36 1 -13 10 -20 10 -36 0
-19 -12 -23 -10 -38 8 -13 19 -20 21 -43 12 -25 -10 -27 -9 -27 14 0 29 -8 32
-26 8 -11 -15 -16 -16 -31 -5 -10 6 -29 17 -41 22 -13 6 -26 19 -29 29 -3 11
-13 21 -24 24 -13 3 -17 11 -13 21 5 12 -1 16 -24 16 -26 0 -29 3 -25 24 4 20
0 25 -18 28 -17 2 -25 11 -27 28 -2 13 -13 31 -23 38 -11 8 -19 22 -17 32 2
11 -6 26 -17 34 -19 13 -19 15 -2 33 23 26 22 31 -10 35 -34 4 -40 21 -14 47
22 22 18 31 -15 31 -34 0 -37 14 -9 40 30 28 32 40 6 40 -29 0 -35 18 -15 41
17 19 17 20 -4 26 -30 7 -28 37 5 61 l27 20 -32 7 c-38 8 -40 18 -9 40 12 10
18 19 12 21 -27 11 -35 22 -29 37 3 9 12 17 19 17 28 0 24 20 -7 36 l-32 17
28 23 c22 20 24 25 12 30 -23 9 -19 42 7 55 30 16 30 15 18 37 -8 15 -6 24 14
42 13 12 21 29 18 37 -3 8 1 31 10 51 8 20 20 57 27 82 7 25 18 60 26 78 8 18
14 45 14 60 0 45 41 176 61 194 11 9 19 24 19 34 0 10 8 26 17 36 10 11 18 29
18 41 0 13 9 26 23 32 15 7 22 18 22 37 0 20 6 27 23 30 17 2 22 10 22 33 0
25 4 31 26 33 22 3 25 7 21 28 -4 20 0 24 21 24 21 0 26 6 29 28 2 19 9 28 25
30 14 2 23 11 25 25 2 18 9 22 35 21 26 -2 33 2 35 20 2 16 9 21 30 19 18 -1
28 4 31 18 4 15 11 18 35 13 22 -4 31 -2 36 11 4 12 13 15 30 11 14 -3 28 -1
32 5 3 6 20 8 38 5 17 -3 38 -1 46 4 8 5 22 7 30 4 8 -4 34 -10 57 -15z
m-10510 -11 c11 -13 28 -38 38 -56 17 -36 37 -134 25 -127 -4 3 -10 23 -13 46
-6 43 -29 76 -61 89 -32 11 -93 -9 -100 -33 -7 -29 0 -33 36 -19 40 15 63 2
73 -40 8 -34 8 -100 -1 -131 -3 -9 -21 -24 -40 -32 -44 -18 -43 -32 2 -41 30
-6 40 -3 61 19 15 14 31 48 38 78 l13 54 1 -55 c1 -74 -36 -156 -75 -166 -30
-8 -72 10 -85 36 -29 57 -42 102 -51 168 -8 65 -6 82 12 138 12 36 28 71 37
79 22 22 66 18 90 -7z m11523 -17 c0 -28 -24 -45 -39 -27 -15 18 -3 46 20 46
12 0 19 -7 19 -19z m-11855 -11 c98 -16 145 -37 145 -66 0 -46 -67 -36 -199
30 -67 34 -88 62 -38 52 12 -3 54 -10 92 -16z m11941 -76 c11 -26 13 -52 9
-88 -11 -76 -60 -166 -91 -166 -27 0 -36 39 -28 132 6 81 10 94 36 124 38 43
55 43 74 -2z m-11935 -190 c78 -27 102 -41 94 -55 -8 -11 -86 14 -140 45 -75
44 -61 47 46 10z m487 -17 c11 -23 10 -33 -6 -71 -24 -53 -55 -86 -82 -86 -26
0 -25 14 5 75 13 28 25 62 25 76 0 48 36 52 58 6z m4089 -82 c151 -28 280
-101 409 -230 96 -96 121 -137 167 -270 68 -197 70 -205 141 -555 24 -121 44
-189 73 -257 23 -50 39 -94 35 -97 -18 -18 -148 6 -237 44 -56 24 -63 39 -71
177 -16 272 -126 554 -293 752 -95 114 -237 207 -414 272 -139 51 -231 70
-384 76 -79 3 -143 10 -143 14 0 4 35 19 78 32 70 23 111 31 272 57 69 11 272
2 367 -15z m-442 -155 c27 -11 28 -13 10 -20 -11 -4 -60 -13 -110 -19 -217
-29 -372 -108 -598 -306 -171 -149 -364 -443 -451 -685 -70 -195 -123 -533
-111 -720 16 -277 124 -574 277 -762 32 -40 17 -44 -42 -12 -127 69 -275 232
-360 394 -81 156 -130 357 -130 531 0 116 9 139 80 188 79 56 113 98 191 238
93 164 90 158 158 356 33 98 82 219 107 268 52 100 166 266 238 346 64 71 182
148 264 173 149 45 403 61 477 30z m4817 -26 c4 -16 5 -55 2 -86 -5 -48 -10
-58 -25 -58 -17 0 -19 9 -19 83 0 46 3 87 7 91 12 12 27 0 35 -30z m-86 5 c4
-7 11 -77 16 -156 l9 -144 -30 -65 c-16 -35 -53 -88 -81 -118 -122 -129 -305
-182 -945 -271 -453 -63 -565 -79 -825 -119 -124 -20 -286 -42 -360 -51 -74
-8 -198 -24 -275 -35 -214 -31 -402 -50 -485 -50 -132 0 -241 41 -290 110 -46
65 -90 252 -90 387 0 55 3 64 26 82 19 15 41 21 75 21 26 0 81 4 121 10 63 9
593 70 1203 140 99 11 313 38 475 60 162 22 408 53 545 70 138 17 372 53 520
80 149 27 281 50 295 53 49 9 89 7 96 -4z m-4780 -122 c4 -14 9 -16 20 -6 8 6
14 17 14 23 0 7 5 17 12 24 15 15 38 -3 38 -29 0 -31 20 -22 36 16 16 39 38
39 48 -1 8 -29 22 -31 38 -4 17 27 33 25 55 -6 18 -24 22 -25 42 -13 20 13 24
12 41 -9 10 -12 21 -28 23 -35 3 -8 11 -4 22 11 20 27 30 22 38 -18 7 -34 26
-40 34 -9 10 36 46 20 56 -26 12 -50 13 -51 33 -34 14 11 18 11 30 -6 8 -10
14 -27 14 -37 0 -13 8 -18 30 -18 27 0 30 -3 30 -31 0 -28 2 -30 33 -27 l32 3
-1 -53 c-2 -49 0 -53 20 -50 17 2 22 -3 26 -32 4 -27 10 -36 28 -38 18 -3 22
-10 22 -42 0 -29 5 -42 20 -50 15 -8 20 -21 20 -49 0 -21 6 -44 14 -50 8 -7
16 -28 19 -49 3 -20 11 -55 20 -77 14 -37 41 -226 40 -285 0 -14 -3 -68 -7
-120 -4 -52 -8 -113 -9 -135 -1 -22 -8 -50 -15 -62 -7 -13 -10 -33 -6 -47 3
-14 -2 -39 -14 -63 -20 -38 -49 -70 -56 -62 -2 2 5 36 15 74 42 157 47 387 13
554 -55 265 -151 445 -306 570 -114 93 -209 133 -357 151 -252 32 -520 -74
-745 -295 -97 -96 -59 -96 44 0 62 58 179 139 260 180 215 109 445 113 663 12
136 -64 225 -162 317 -351 92 -187 104 -240 104 -486 1 -196 0 -209 -27 -304
-76 -266 -206 -501 -372 -675 -187 -195 -418 -301 -659 -301 -121 0 -191 16
-305 71 -84 41 -123 74 -251 214 -42 47 -55 56 -58 42 -10 -51 188 -237 312
-292 261 -116 559 -82 826 94 114 75 263 237 365 396 22 33 62 116 89 184 28
69 57 126 64 129 16 5 15 -28 -3 -52 -9 -11 -12 -29 -9 -43 5 -18 1 -28 -15
-39 -14 -10 -21 -26 -21 -48 0 -19 -7 -39 -15 -46 -8 -7 -15 -20 -15 -30 0 -9
-9 -29 -20 -43 -11 -14 -20 -31 -20 -39 0 -7 -9 -24 -20 -38 -11 -14 -20 -34
-20 -46 0 -11 -11 -31 -25 -44 -14 -13 -25 -28 -25 -33 0 -13 -38 -61 -95
-120 -28 -29 -59 -64 -68 -79 -10 -16 -24 -28 -32 -28 -7 0 -23 -13 -35 -30
-12 -16 -27 -30 -34 -30 -7 0 -22 -14 -34 -30 -13 -17 -31 -30 -40 -30 -10 0
-28 -14 -40 -30 -13 -17 -32 -30 -43 -30 -12 0 -32 -9 -46 -20 -14 -11 -36
-20 -48 -20 -12 0 -30 -9 -40 -20 -14 -15 -26 -19 -50 -14 -22 4 -35 1 -44
-10 -16 -19 -42 -21 -59 -4 -8 8 -19 3 -42 -22 l-31 -33 -23 22 -23 21 -18
-20 c-20 -22 -45 -26 -63 -8 -9 9 -18 9 -37 0 -36 -16 -62 -15 -69 3 -4 12
-10 14 -25 5 -29 -15 -71 -12 -78 6 -4 12 -14 14 -39 10 -26 -5 -37 -2 -53 15
-14 15 -27 20 -44 15 -33 -8 -50 14 -41 50 l7 28 -26 -17 c-29 -19 -63 -22
-72 -7 -3 5 1 23 10 39 20 39 19 41 -10 28 -14 -7 -25 -15 -25 -19 0 -14 -37
-8 -50 7 -10 12 -9 20 5 41 20 30 12 43 -15 26 -26 -16 -45 -15 -64 4 -21 21
-20 27 10 58 29 28 27 30 -29 17 -30 -7 -39 -6 -46 8 -8 12 -2 24 22 48 23 24
27 33 15 33 -9 0 -20 -4 -23 -10 -12 -20 -51 -10 -66 16 -13 24 -12 28 14 50
36 31 34 35 -12 28 -34 -5 -40 -3 -46 16 -7 23 18 60 41 60 7 0 16 5 19 10 4
7 -7 8 -33 4 -35 -5 -42 -3 -52 17 -12 21 -10 26 20 50 l33 28 -39 3 c-34 3
-39 6 -39 28 0 21 8 27 49 41 51 16 73 39 37 39 -11 0 -32 -5 -47 -10 -35 -14
-61 -5 -68 25 -8 33 3 55 28 55 12 0 31 7 42 15 18 13 16 14 -22 15 -74 0 -85
52 -16 75 48 16 49 25 4 25 -31 0 -44 5 -52 19 -15 30 -3 48 41 57 51 11 53
27 5 35 -45 7 -53 15 -40 37 7 11 27 18 55 20 73 4 78 15 14 26 -51 10 -60 15
-63 34 -5 33 15 52 54 52 48 0 52 18 5 26 -28 5 -41 12 -45 27 -8 32 9 52 46
52 36 0 53 18 22 23 -21 4 -44 29 -44 48 0 23 31 44 66 44 42 0 45 16 3 25
-27 6 -30 10 -27 38 3 32 4 32 51 29 26 -2 47 -1 47 2 0 3 -17 14 -37 24 -39
18 -40 22 -28 80 4 18 12 22 40 22 41 0 42 3 15 30 -24 24 -25 43 -3 65 11 11
26 15 45 11 34 -7 40 17 8 34 -20 11 -25 35 -14 64 4 11 19 16 51 16 l44 0
-20 29 c-26 36 -26 43 -1 66 17 15 24 16 50 5 40 -17 47 -8 20 28 -32 44 -24
68 24 65 40 -3 39 -4 20 42 -3 6 1 18 8 28 11 15 17 16 45 5 42 -16 49 -7 26
32 -17 31 -17 32 0 45 15 11 25 11 43 3 30 -14 56 4 36 24 -30 30 0 68 38 48
35 -19 42 -12 35 29 -5 33 -4 40 12 43 10 3 30 -2 45 -11 36 -20 47 -7 26 30
-16 28 -16 29 3 39 14 8 25 7 41 -5 35 -24 48 -19 48 20 0 39 21 55 45 35 21
-18 45 -5 45 25 0 31 34 35 52 5 20 -31 36 -24 40 18 2 28 8 38 24 40 15 2 25
-7 40 -39 25 -54 39 -55 40 -1 1 54 21 71 46 39 10 -12 20 -30 24 -40z m-4429
-417 c43 -23 112 -52 153 -65 41 -13 122 -42 180 -65 58 -22 155 -54 215 -71
61 -16 151 -43 200 -58 192 -61 404 -113 735 -181 370 -75 432 -86 725 -125
109 -15 199 -32 212 -41 29 -19 33 -36 36 -169 l2 -110 -96 2 c-107 2 -334 40
-611 102 -448 101 -973 290 -1440 519 -225 110 -334 177 -390 240 -68 75 -39
83 79 22z m10187 -147 c3 -27 11 -100 16 -163 11 -122 53 -286 96 -377 13 -28
24 -56 24 -61 0 -6 20 -36 44 -69 47 -64 70 -102 63 -109 -7 -7 -88 25 -137
53 -59 35 -162 134 -199 192 -50 79 -98 201 -126 320 l-26 115 23 18 c13 10
55 37 93 61 39 23 76 47 83 54 26 25 40 14 46 -34z m-10048 -87 c50 -23 52
-26 73 -94 11 -39 21 -78 21 -87 0 -9 6 -31 14 -48 7 -18 30 -77 51 -132 39
-103 78 -171 148 -263 22 -29 37 -55 35 -58 -9 -8 -90 52 -139 103 -77 81
-140 172 -190 278 -69 142 -112 325 -76 325 6 0 35 -11 63 -24z m271 -132
c193 -82 253 -118 316 -189 111 -124 243 -196 388 -211 36 -3 119 -1 185 5
114 12 123 11 209 -12 50 -13 134 -36 187 -50 127 -34 162 -52 149 -76 -38
-69 -309 -175 -560 -216 -308 -52 -588 45 -773 266 -95 115 -124 157 -168 252
-62 132 -91 277 -55 277 8 0 63 -21 122 -46z m584 -250 c171 -54 219 -74 219
-90 0 -11 -15 -14 -61 -14 -80 0 -221 49 -266 93 -61 58 -47 60 108 11z m1159
-324 c0 -5 -17 -10 -37 -10 -28 0 -34 3 -23 10 20 13 60 13 60 0z m-165 -10
c68 -1 38 -18 -47 -27 -74 -7 -108 -18 -108 -34 0 -8 24 -9 88 -4 48 4 110 9
137 11 28 1 95 10 150 18 114 18 280 21 253 5 -17 -10 -197 -36 -303 -43 -33
-3 -96 -10 -140 -16 -44 -6 -107 -12 -139 -14 -33 -3 -86 -7 -118 -11 -40 -5
-58 -3 -58 4 0 6 5 11 11 11 13 0 149 79 168 98 8 7 23 11 35 8 12 -3 44 -6
71 -6z"/>
<path d="M6140 6740 c0 -6 8 -10 18 -10 9 0 58 -11 107 -24 50 -13 131 -34
180 -46 103 -26 190 -60 245 -96 40 -27 60 -65 60 -117 0 -35 -7 -36 146 27
60 25 149 56 197 68 122 32 115 43 -33 52 -88 5 -80 4 -80 15 0 15 59 30 140
36 41 3 201 12 355 20 400 21 446 25 415 38 -15 6 -238 13 -560 18 -714 10
-1129 19 -1162 24 -16 3 -28 0 -28 -5z"/>
<path d="M4970 6674 c-289 -14 -521 -40 -648 -75 -205 -55 -289 -145 -656
-700 -438 -662 -434 -654 -382 -716 15 -18 42 -37 60 -43 20 -6 130 -12 258
-14 122 -2 226 -4 230 -5 3 -1 30 -22 60 -47 62 -53 104 -78 112 -65 9 14 -4
42 -39 86 -34 43 -69 104 -63 111 7 6 351 -15 420 -25 35 -6 135 -17 223 -26
192 -20 262 -35 304 -66 30 -22 31 -24 11 -31 -12 -4 -81 1 -158 12 -164 23
-553 60 -634 60 -32 0 -58 -4 -58 -9 0 -13 64 -21 170 -21 52 0 156 -9 230
-20 74 -11 164 -25 200 -30 36 -6 121 -17 190 -25 167 -20 185 -27 215 -80 14
-24 32 -46 40 -49 8 -3 15 -15 15 -26 0 -28 40 -45 77 -33 41 14 42 41 2 45
-27 2 -37 11 -53 42 -21 40 -105 106 -299 237 -68 45 -97 59 -125 59 -20 0
-64 5 -97 10 -117 20 -262 30 -286 21 -13 -5 -18 -10 -11 -10 6 -1 12 -6 12
-12 0 -11 -114 -6 -266 13 -66 8 -99 8 -122 0 -29 -10 -35 -8 -73 24 l-41 34
-119 0 c-134 0 -138 3 -96 72 109 179 366 570 479 731 66 94 143 170 232 230
61 41 72 61 29 51 -68 -15 -172 -106 -288 -249 -82 -101 -328 -460 -395 -575
-72 -126 -145 -226 -148 -206 -2 10 14 44 35 76 21 33 51 81 67 107 36 59 107
169 245 380 58 89 135 208 171 263 97 152 232 265 353 297 169 44 766 80 892
54 l40 -9 -50 -1 c-433 -12 -745 -49 -790 -94 -13 -12 57 -4 200 23 79 15 168
23 317 27 232 6 235 5 202 -59 -17 -33 -20 -75 -12 -173 9 -102 8 -101 171
-108 105 -4 109 -1 132 98 8 38 25 79 35 90 11 12 23 35 26 52 5 28 3 33 -24
47 -17 9 -41 16 -53 16 -22 0 -22 0 5 -29 l27 -28 -21 -35 c-11 -20 -24 -60
-27 -89 -9 -76 -35 -99 -110 -98 -94 2 -108 8 -111 55 -2 30 2 45 18 59 12 11
20 31 20 52 0 37 -15 44 -25 12 -7 -22 -23 -21 -39 3 -7 12 -5 28 9 57 18 41
41 62 83 75 18 6 22 4 22 -12 0 -11 -9 -31 -21 -46 -12 -15 -15 -26 -9 -26 7
0 21 11 32 25 48 61 101 68 348 47 146 -13 272 -37 389 -74 94 -29 96 -36 76
-211 -42 -358 -90 -636 -112 -644 -8 -3 -38 6 -68 21 -116 56 -281 73 -375 37
-135 -51 -219 -166 -239 -325 -6 -49 -7 -51 -50 -67 l-45 -16 47 -21 c38 -17
47 -26 47 -45 0 -14 -7 -28 -17 -32 -24 -9 -237 32 -291 56 -49 22 -106 26
-100 7 9 -26 98 -59 209 -79 63 -11 168 -32 234 -46 66 -13 162 -33 213 -44
116 -24 242 -25 306 -3 67 23 161 113 214 206 23 41 69 135 101 209 109 249
191 430 230 507 97 192 93 316 -11 393 -149 110 -480 207 -845 248 -324 37
-518 46 -713 32 -335 -22 -458 -45 -588 -107 -126 -61 -249 -197 -413 -459
-34 -55 -83 -127 -109 -160 -25 -33 -93 -132 -149 -220 -57 -88 -123 -189
-147 -225 -69 -104 -76 -145 -27 -165 10 -4 105 -10 211 -15 180 -7 195 -9
215 -29 38 -38 11 -43 -213 -37 -267 6 -300 17 -300 93 0 31 14 56 107 195 35
51 129 198 210 325 231 363 390 590 466 665 108 108 245 163 447 182 186 17
547 25 720 16 633 -34 1144 -192 1241 -381 45 -89 22 -169 -158 -549 -75 -157
-164 -346 -199 -420 -116 -246 -153 -296 -250 -345 -51 -25 -73 -30 -164 -33
-86 -3 -127 1 -230 23 -304 65 -365 76 -394 73 l-31 -4 30 -13 c17 -7 102 -28
190 -47 88 -19 189 -42 225 -50 94 -22 266 -29 329 -14 71 17 158 76 214 146
67 82 345 649 459 934 65 162 72 226 34 305 -72 145 -330 266 -751 349 -274
55 -597 82 -845 70z m1318 -386 c30 -18 69 -50 86 -71 27 -34 31 -46 31 -100
0 -57 -9 -81 -98 -280 -180 -403 -183 -408 -236 -370 -23 15 -23 20 -17 92 3
42 13 121 21 176 9 55 20 138 26 185 5 47 12 99 14 115 3 17 11 84 18 150 7
66 16 126 21 134 13 20 69 7 134 -31z m-497 -728 c90 -31 215 -97 258 -138 46
-45 27 -52 -35 -13 -71 44 -182 97 -234 111 -65 18 -170 14 -224 -9 -24 -11
-63 -36 -85 -56 -30 -27 -41 -33 -41 -21 0 16 10 28 73 84 63 56 190 75 288
42z m55 -99 c65 -29 114 -68 114 -91 0 -23 -72 -86 -125 -111 -27 -12 -88 -22
-180 -30 -165 -13 -209 -28 -86 -29 105 0 275 26 321 50 19 10 51 34 69 54 36
38 59 44 79 24 20 -20 14 -60 -20 -127 -60 -117 -146 -190 -244 -206 -53 -8
-198 11 -249 34 -73 33 -80 48 -80 175 0 95 3 117 22 152 28 52 94 109 141
123 57 16 182 6 238 -18z m-2156 -191 c19 -12 -66 -12 -95 0 -15 6 -7 9 30 9
28 0 57 -4 65 -9z m1697 -132 c-3 -8 -6 -5 -6 6 -1 11 2 17 5 13 3 -3 4 -12 1
-19z"/>
<path d="M3690 5341 c0 -7 28 -11 78 -11 42 0 87 -3 100 -6 25 -7 31 -34 7
-34 -8 0 -15 -5 -15 -11 0 -17 62 -6 74 13 8 14 7 22 -7 35 -14 15 -39 19
-127 21 -75 3 -110 0 -110 -7z"/>
<path d="M4345 5300 c-11 -5 -15 -9 -10 -10 6 0 55 -7 110 -15 55 -8 143 -15
196 -15 82 0 100 -3 122 -21 15 -11 54 -25 89 -30 35 -6 96 -17 136 -25 40 -8
89 -14 110 -14 33 1 35 2 19 14 -17 13 -172 46 -217 46 -12 0 -52 13 -90 30
-64 28 -78 30 -227 35 -87 3 -171 7 -188 10 -16 2 -39 0 -50 -5z"/>
<path d="M3250 4860 c-187 -33 -647 -147 -1035 -256 -253 -71 -449 -141 -591
-208 -110 -53 -143 -74 -206 -134 -41 -39 -95 -80 -121 -91 -37 -16 -51 -29
-70 -68 -42 -83 -62 -152 -50 -164 18 -18 28 -4 59 86 21 61 33 85 44 83 24
-5 23 -34 -5 -104 -26 -66 -24 -94 7 -81 17 6 88 168 95 215 4 24 19 51 42 75
51 54 187 143 279 182 207 87 945 308 1137 340 70 11 549 127 565 136 24 14
-33 9 -150 -11z"/>
<path d="M2815 4086 c-72 -13 -145 -27 -275 -53 -128 -26 -370 -28 -565 -5
-274 33 -301 35 -290 23 6 -6 60 -22 121 -35 121 -27 166 -44 161 -60 -2 -6
-25 -12 -50 -14 -26 -2 -47 -7 -47 -13 0 -5 2 -9 4 -9 2 0 77 -16 167 -35 186
-40 227 -60 266 -135 13 -25 28 -46 33 -48 5 -2 16 12 25 30 32 64 88 137 128
169 54 43 195 101 370 150 78 22 144 42 146 45 9 8 -126 1 -194 -10z"/>
<path d="M1245 3694 c306 -79 531 -147 561 -168 27 -20 8 -36 -44 -36 -45 -1
-46 -1 -22 -14 14 -8 88 -30 165 -51 305 -80 349 -112 407 -289 19 -57 66
-137 89 -152 24 -15 27 15 9 85 -25 93 -25 108 0 123 47 30 3 156 -80 231 -64
58 -144 89 -321 126 -79 16 -211 46 -294 65 -219 51 -394 85 -466 91 l-64 5
60 -16z"/>
<path d="M783 3548 c48 -16 87 -34 87 -39 0 -18 -54 -8 -146 26 -90 34 -134
43 -134 28 0 -19 241 -114 274 -109 22 3 46 27 46 45 0 32 -18 43 -96 62 -117
27 -131 22 -31 -13z"/>
<path d="M1476 3411 c5 -5 92 -30 193 -56 102 -26 192 -51 200 -55 9 -5 25
-11 35 -15 38 -11 9 -14 -59 -5 -146 20 -351 63 -387 81 -48 24 -68 24 -68 -1
0 -42 77 -65 355 -105 99 -14 212 -33 252 -41 64 -13 76 -13 108 0 44 19 45
42 3 60 -30 13 -161 45 -263 65 -22 4 -56 13 -75 19 -19 7 -83 23 -141 37
-111 26 -170 32 -153 16z"/>
<path d="M460 2921 c0 -5 26 -24 58 -42 81 -46 159 -106 165 -129 6 -23 32
-27 40 -6 12 32 -48 91 -142 139 -91 46 -121 56 -121 38z"/>
<path d="M1370 2881 c0 -10 41 -20 225 -51 66 -11 163 -32 215 -46 115 -30
124 -33 118 -39 -7 -7 -376 44 -433 59 -75 21 -125 28 -125 18 0 -33 71 -56
265 -88 345 -56 345 -56 412 -45 36 5 68 12 71 15 10 11 -31 46 -72 60 -53 18
-221 58 -406 96 -142 29 -270 39 -270 21z"/>
<path d="M836 2774 c-20 -20 -29 -85 -21 -156 9 -73 32 -101 96 -118 24 -6
105 -31 180 -55 176 -56 352 -100 373 -92 13 5 16 24 16 106 0 55 -4 110 -9
123 -9 24 -41 35 -236 84 -38 9 -131 38 -205 64 -173 60 -178 61 -194 44z
m265 -99 c195 -50 317 -92 332 -116 6 -9 7 -42 3 -82 -7 -60 -10 -67 -30 -67
-27 0 -225 49 -380 94 -150 44 -166 57 -166 141 0 34 3 65 7 68 13 14 66 6
234 -38z"/>
<path d="M1705 2496 c-52 -25 -95 -78 -95 -117 0 -29 12 -22 52 31 18 24 45
47 58 51 48 13 150 9 252 -11 291 -56 619 -93 631 -72 7 11 -53 23 -208 42
-49 7 -106 16 -125 20 -19 5 -82 16 -140 24 -58 8 -143 24 -190 35 -113 28
-173 27 -235 -3z"/>
<path d="M8040 6413 c-221 -11 -622 -45 -687 -59 -165 -34 -269 -90 -372 -199
-68 -73 -126 -168 -247 -400 -166 -320 -255 -547 -275 -703 -10 -74 -9 -97 5
-152 40 -159 154 -237 383 -262 81 -9 150 -8 350 5 136 9 358 22 493 27 135 6
335 17 445 25 110 8 256 17 325 20 334 16 581 42 680 71 98 29 170 122 185
240 12 86 -43 781 -76 969 -13 72 -53 196 -76 233 -31 51 -98 114 -147 139
-93 48 -150 53 -551 51 -203 -1 -399 -3 -435 -5z m862 -44 c76 -16 138 -50
187 -104 82 -89 104 -171 131 -475 54 -603 60 -756 34 -833 -31 -91 -135 -154
-284 -171 -57 -6 -524 -34 -1030 -61 -162 -9 -378 -22 -480 -31 -102 -8 -275
-17 -385 -21 -285 -8 -383 10 -472 90 -62 56 -86 116 -91 222 -6 122 9 172
124 445 191 448 295 634 419 748 152 139 283 168 850 191 320 13 936 13 997 0z"/>
<path d="M8125 6323 c-200 -10 -668 -45 -725 -54 -200 -33 -335 -107 -423
-231 -56 -80 -291 -538 -351 -685 -137 -334 -109 -515 91 -594 54 -22 72 -24
258 -24 110 0 324 8 475 18 346 22 1102 65 1280 72 257 11 368 33 423 83 11 9
29 35 41 57 19 37 21 53 19 205 -2 91 -12 253 -22 360 -11 107 -25 254 -32
325 -21 234 -61 341 -153 402 -94 64 -116 67 -481 68 -181 1 -361 0 -400 -2z
m795 -74 c76 -34 158 -155 179 -264 23 -116 51 -327 51 -384 l0 -61 -132 0
c-204 0 -550 19 -565 32 -8 6 -13 33 -13 67 0 137 -53 224 -267 440 -84 85
-153 158 -153 163 0 22 80 26 500 24 307 -1 371 -4 400 -17z m-1079 -18 c25
-20 25 -24 48 -401 5 -85 15 -220 22 -298 13 -164 5 -218 -34 -227 -12 -3
-215 -10 -452 -16 -236 -6 -496 -13 -577 -16 -163 -5 -171 -2 -150 54 60 162
163 374 288 592 127 222 226 275 589 311 237 23 239 23 266 1z m109 -196 c6
-99 15 -220 20 -270 6 -49 15 -164 20 -255 5 -91 14 -217 19 -280 16 -183 21
-379 11 -385 -17 -10 -27 29 -34 125 -13 192 -25 348 -36 480 -47 586 -56 736
-45 770 6 19 9 20 21 8 10 -10 17 -64 24 -193z m134 85 c103 -83 227 -218 264
-287 41 -79 65 -166 57 -209 -10 -54 -41 -68 -154 -69 -91 0 -99 -2 -147 -32
-28 -18 -56 -33 -62 -33 -21 0 -31 77 -47 359 -18 347 -18 331 -1 331 8 0 49
-27 90 -60z m696 -600 c265 -9 341 -17 362 -38 13 -13 25 -123 34 -307 6 -143
6 -153 -15 -193 -43 -84 -130 -105 -472 -117 l-184 -7 -107 31 c-59 17 -154
38 -210 47 -57 9 -107 21 -113 25 -11 11 -34 252 -34 369 -1 66 3 91 18 113
58 89 132 97 721 77z m-950 -259 c14 -4 26 -14 28 -23 2 -9 -29 -80 -68 -158
-75 -147 -86 -159 -160 -175 -19 -4 -75 -25 -125 -47 -163 -71 -200 -78 -421
-88 -269 -12 -347 4 -426 87 -15 15 -32 41 -37 56 -16 41 -13 175 4 234 26 87
20 85 313 95 141 5 340 13 442 17 237 10 418 11 450 2z m113 -171 c13 -126 7
-135 -100 -145 -64 -6 -73 -5 -73 9 0 16 85 175 123 229 29 42 39 23 50 -93z
m-6 -178 c19 -12 25 -55 11 -74 -11 -14 -42 -19 -178 -28 -204 -12 -260 -13
-260 -1 0 42 379 134 427 103z m318 -22 c103 -20 117 -26 97 -39 -22 -14 -254
-22 -269 -9 -14 11 -18 50 -6 61 12 12 79 7 178 -13z"/>
<path d="M9190 4560 c-41 -4 -156 -11 -255 -15 -216 -8 -575 -30 -815 -50 -96
-8 -249 -19 -340 -25 -207 -14 -443 -38 -473 -49 -15 -6 16 -11 101 -16 67 -4
122 -11 122 -14 0 -4 -78 -15 -172 -25 -184 -18 -408 -52 -417 -62 -3 -4 111
-4 254 -1 246 6 412 16 865 52 107 9 281 22 385 31 105 8 258 21 340 29 83 8
254 21 380 30 296 20 306 21 315 35 13 21 -2 51 -34 71 -34 21 -110 23 -256 9z"/>
<path d="M6342 4415 c-40 -7 -84 -20 -97 -29 -31 -21 -33 -63 -4 -100 26 -33
85 -35 161 -5 61 23 127 35 288 49 142 13 150 15 150 45 0 49 -27 55 -235 54
-110 0 -221 -6 -263 -14z m401 -36 c-16 -16 -264 -42 -277 -28 -8 7 -5 15 8
25 25 18 287 21 269 3z m-385 -43 c5 -22 -13 -36 -46 -36 -25 0 -38 21 -28 46
9 23 70 15 74 -10z"/>
<path d="M7035 4110 c28 -12 115 -12 115 0 0 6 -29 10 -67 9 -47 0 -62 -3 -48
-9z"/>
<path d="M9607 6329 c-64 -15 -116 -48 -144 -91 -25 -37 -28 -52 -31 -142 -5
-153 65 -858 103 -1031 30 -135 99 -217 214 -253 71 -22 217 -21 671 1 399 20
615 40 683 63 93 31 154 116 216 304 85 259 47 424 -143 614 -172 173 -369
322 -518 391 -162 74 -372 123 -621 144 -150 13 -376 13 -430 0z m538 -44
c280 -44 436 -103 663 -253 235 -154 404 -320 472 -463 26 -56 30 -75 30 -149
0 -156 -65 -350 -148 -442 -66 -73 -75 -75 -513 -103 -705 -46 -824 -48 -891
-15 -52 25 -31 33 65 26 50 -4 140 -3 199 3 60 6 267 17 460 25 583 25 572 24
632 76 78 69 161 312 153 450 -4 86 -27 138 -103 239 -114 151 -416 371 -645
467 -82 35 -198 67 -279 78 -83 11 -424 36 -515 37 -105 2 -160 11 -132 24 64
28 373 28 552 0z m-177 -80 c368 -27 571 -88 797 -241 105 -70 288 -226 342
-291 63 -76 87 -133 63 -148 -6 -4 -164 12 -353 33 -443 52 -909 96 -1142 108
-66 3 -128 10 -138 15 -29 16 -38 54 -52 221 -27 323 -2 339 483 303z m-315
-565 c51 -6 288 -26 527 -45 239 -20 489 -42 555 -51 153 -19 257 -32 370 -44
114 -12 119 -17 112 -125 -6 -91 -40 -195 -92 -284 -39 -66 -50 -77 -86 -86
-26 -7 -27 -6 -44 87 -9 51 -23 109 -31 128 -29 68 -85 113 -169 135 -75 19
-311 51 -440 60 -55 4 -143 13 -195 20 -53 8 -188 24 -300 35 -243 24 -318 34
-327 43 -15 16 -20 97 -6 117 16 23 9 23 126 10z m112 -194 c72 -8 200 -20
285 -25 85 -6 227 -20 315 -31 88 -11 200 -24 250 -29 78 -8 92 -12 111 -35
31 -36 48 -125 41 -222 -7 -97 -21 -131 -57 -139 -15 -3 -128 -10 -251 -15
-123 -5 -303 -14 -399 -20 -275 -18 -360 -3 -424 71 -38 45 -63 115 -76 216
-6 40 -15 107 -20 149 -13 94 -5 109 55 101 22 -3 99 -12 170 -21z m1089 -150
c18 -7 42 -27 54 -43 26 -37 51 -124 54 -190 3 -74 -13 -88 -100 -88 -63 0
-67 1 -66 23 0 12 1 87 2 167 1 92 6 145 12 145 6 0 26 -6 44 -14z"/>
<path d="M11640 4780 c-8 -5 -11 -12 -7 -16 4 -4 13 -2 19 4 15 15 7 24 -12
12z"/>
<path d="M11210 4077 c-3 -3 -68 -13 -145 -22 -77 -9 -178 -25 -225 -36 -115
-26 -274 -105 -334 -164 -71 -72 -185 -315 -147 -315 7 0 20 15 29 32 20 39
128 155 136 147 3 -3 2 -27 -3 -52 -4 -26 -5 -47 -1 -47 4 0 30 26 57 58 110
127 324 232 542 267 53 9 123 20 155 25 106 17 91 32 -35 32 -53 0 -86 4 -78
8 28 16 246 30 462 30 202 0 251 6 195 25 -26 9 -600 20 -608 12z"/>
<path d="M11694 3531 c4 -6 31 -11 59 -11 78 0 255 -37 312 -65 74 -36 155
-119 191 -196 38 -78 50 -136 63 -288 5 -63 15 -118 21 -125 9 -8 11 -6 6 10
-3 11 -7 74 -7 140 -2 182 -29 270 -118 380 -54 67 -122 111 -212 139 -67 21
-326 34 -315 16z"/>
<path d="M5705 3969 c-110 -4 -274 -12 -365 -18 -91 -6 -237 -15 -325 -21
-193 -12 -647 -72 -797 -105 -38 -8 -125 -26 -195 -39 -133 -25 -243 -53 -243
-63 0 -3 27 -3 60 0 33 3 60 2 60 -2 0 -7 -35 -16 -185 -47 -191 -39 -209 -58
-32 -34 132 19 337 40 383 40 25 0 26 -2 14 -14 -8 -8 -30 -18 -48 -23 -18 -5
-32 -13 -30 -18 6 -18 112 -6 703 79 171 24 407 56 525 71 118 15 328 42 465
62 245 34 325 52 238 53 -87 0 -96 30 -10 31 62 0 144 13 155 23 4 4 -2 14
-12 22 -21 15 -28 15 -361 3z"/>
<path d="M11340 2965 c-107 -30 -193 -105 -290 -253 -220 -336 -218 -857 5
-1060 73 -67 131 -86 239 -80 146 9 271 79 367 207 212 279 253 772 87 1022
-94 140 -257 206 -408 164z m226 -68 c98 -50 200 -199 224 -327 32 -173 21
-330 -36 -505 -54 -164 -120 -267 -230 -356 -101 -83 -146 -103 -224 -102 -80
1 -140 22 -198 70 -42 34 -86 92 -77 101 2 3 29 -18 60 -46 57 -52 117 -79
189 -84 64 -5 51 16 -23 35 -59 16 -111 48 -111 69 0 3 37 8 83 10 71 3 92 8
159 41 145 73 253 196 302 345 48 144 49 166 22 266 -26 94 -54 145 -133 247
-56 72 -87 105 -128 136 -25 19 -28 24 -15 32 21 15 86 13 118 -3 42 -21 72
-28 72 -17 0 13 -93 56 -153 71 -71 18 -162 -8 -245 -71 -55 -42 -143 -166
-179 -252 -35 -84 -53 -113 -53 -85 0 8 27 68 59 134 51 103 69 129 126 183
37 34 84 74 106 88 87 57 196 65 285 20z m-151 -146 c46 -21 102 -77 107 -106
3 -18 -2 -20 -39 -17 -25 2 -55 -4 -75 -14 -42 -21 -117 -77 -118 -86 0 -15
19 -8 51 19 37 32 145 59 166 41 7 -6 13 -7 13 -3 0 4 7 2 15 -5 24 -20 18
-29 -22 -36 -124 -22 -213 -126 -248 -288 -15 -71 -6 -186 20 -239 9 -20 32
-50 49 -65 49 -43 52 -52 16 -52 -23 0 -41 11 -73 43 -53 53 -75 99 -91 190
-7 46 -15 67 -20 59 -13 -22 4 -135 29 -189 25 -55 90 -133 110 -133 7 0 18
-7 25 -15 11 -13 5 -18 -36 -36 -70 -31 -154 -31 -187 -1 -49 46 -96 198 -97
310 0 75 27 243 50 312 46 136 139 281 203 317 32 18 106 15 152 -6z m158
-266 c18 -8 43 -32 57 -52 23 -33 25 -46 25 -142 -1 -167 -43 -260 -144 -315
-52 -28 -53 -28 -91 -11 -21 9 -53 33 -72 52 l-33 34 0 129 c0 97 3 132 14
142 11 11 12 8 7 -17 -4 -16 -9 -57 -12 -91 -6 -54 -4 -63 18 -89 l25 -29 64
23 c77 28 175 77 184 91 8 13 -26 13 -59 0 -41 -15 -31 6 19 40 66 46 61 61
-22 58 l-68 -3 -28 53 -29 53 -34 -26 c-39 -30 -44 -18 -13 31 23 37 43 51
104 70 52 16 52 16 88 -1z m-619 -366 c2 -113 7 -146 29 -212 33 -95 35 -120
7 -84 -11 14 -20 32 -20 40 0 8 -7 31 -15 51 -20 48 -30 172 -20 270 4 43 9
76 11 73 2 -2 6 -64 8 -138z"/>
<path d="M4751 2230 c-340 -72 -578 -333 -667 -732 -26 -114 -24 -339 4 -453
34 -136 93 -246 177 -330 81 -82 143 -118 251 -145 203 -52 409 1 603 157 102
81 149 145 239 323 96 191 114 261 115 450 1 168 -20 272 -80 400 -66 139
-222 267 -383 314 -68 20 -201 28 -259 16z m257 -54 c75 -20 152 -70 228 -147
95 -95 119 -137 159 -283 30 -113 35 -144 35 -242 0 -197 -39 -329 -147 -501
-117 -187 -214 -280 -380 -364 -68 -35 -94 -43 -156 -47 -162 -10 -338 59
-448 176 -70 73 -143 199 -136 235 3 18 7 13 26 -27 41 -92 86 -148 179 -226
82 -69 103 -80 172 -100 55 -16 95 -21 130 -18 87 9 83 25 -10 38 -56 8 -118
35 -107 46 3 3 35 9 72 15 83 11 222 70 285 120 57 45 201 238 241 322 67 144
77 345 25 520 -37 123 -69 182 -140 253 -65 65 -119 91 -234 115 -34 7 -62 16
-62 20 0 23 134 35 215 20 74 -14 188 -67 239 -111 27 -24 40 -30 48 -22 16
16 -63 87 -137 123 -216 102 -476 60 -673 -110 -33 -28 -79 -86 -120 -150 -66
-103 -91 -121 -54 -39 30 68 137 194 210 248 90 66 187 117 258 134 77 19 215
19 282 2z m-183 -171 c100 -26 245 -137 245 -188 0 -21 -20 -21 -84 -2 -60 18
-153 19 -185 1 -21 -12 -17 -13 50 -19 94 -7 167 -35 214 -81 37 -38 70 -100
60 -116 -3 -5 -31 4 -61 21 -73 38 -155 39 -229 4 l-50 -24 82 6 c104 7 157
-11 208 -70 36 -42 62 -105 52 -129 -5 -15 -187 -82 -196 -72 -6 6 3 15 69 65
24 18 32 30 27 43 -6 15 -14 17 -50 10 -95 -18 -115 -12 -131 38 -10 32 -63 2
-101 -56 -50 -76 -71 -145 -60 -193 10 -36 12 -38 54 -41 25 -2 54 1 65 7 12
5 44 19 71 31 28 11 94 46 147 76 54 31 102 52 109 48 17 -10 3 -104 -25 -168
-50 -112 -151 -186 -257 -186 -61 0 -94 16 -141 68 -57 63 -77 216 -42 318 24
72 2 78 -32 7 -24 -51 -27 -70 -28 -158 -1 -92 1 -105 29 -159 24 -48 40 -65
80 -87 28 -16 75 -32 105 -36 38 -6 55 -13 55 -23 0 -32 -141 -51 -219 -29
-84 23 -178 154 -190 265 -14 121 -9 198 17 277 25 77 19 119 -7 55 -39 -92
-58 -202 -53 -296 5 -80 11 -104 43 -173 54 -114 121 -165 249 -186 116 -19
-20 -80 -159 -71 -151 10 -255 104 -321 293 -27 75 -33 300 -10 386 10 35 21
80 25 99 9 47 82 191 124 249 73 98 137 145 256 185 88 30 115 31 195 11z
m-610 -344 c-14 -29 -35 -49 -35 -36 0 9 40 65 46 65 2 0 -2 -13 -11 -29z
m-51 -188 c-4 -10 -9 -89 -12 -175 -2 -87 -8 -158 -12 -158 -14 0 -23 202 -11
234 7 16 9 37 6 46 -3 10 -1 21 5 25 5 3 10 15 10 26 0 10 5 19 11 19 7 0 8
-7 3 -17z"/>
<path d="M3856 1251 c-5 -8 -11 -67 -14 -133 -4 -100 -1 -133 18 -213 19 -78
26 -95 41 -95 23 0 22 -5 5 56 -14 47 -34 230 -39 344 -1 37 -5 50 -11 41z"/>
<path d="M3910 727 c0 -14 20 -37 32 -37 15 0 8 38 -8 44 -22 8 -24 8 -24 -7z"/>
<path d="M170 2594 c0 -4 8 -16 17 -26 15 -17 15 -19 -2 -32 -17 -12 -16 -14
6 -35 47 -44 272 -142 288 -125 3 4 0 9 -6 11 -14 5 -18 33 -5 33 4 0 49 -11
100 -24 97 -25 124 -19 45 10 -27 9 -127 54 -223 99 -182 86 -220 101 -220 89z"/>
<path d="M1403 2144 c11 -11 194 -68 312 -97 394 -98 470 -118 480 -128 10
-11 -9 -10 -127 8 -22 3 -38 1 -38 -4 0 -13 153 -56 290 -82 223 -42 651 -73
735 -53 45 10 49 5 -40 43 l-30 12 40 8 c22 4 57 8 78 8 20 1 37 5 37 10 0 11
-33 16 -225 30 -170 13 -190 18 -173 38 9 11 9 16 -1 22 -16 10 -148 28 -266
37 -77 6 -93 4 -104 -10 -17 -20 -50 -20 -139 -1 -38 7 -108 19 -157 25 -48 6
-147 24 -219 41 -355 81 -463 103 -453 93z"/>
<path d="M12420 1899 c-147 -15 -359 -50 -412 -68 -46 -16 -49 -18 -35 -33 18
-17 38 -15 287 38 63 13 160 31 215 40 180 29 145 43 -55 23z"/>
<path d="M12450 1589 c-80 -16 -248 -49 -375 -74 -310 -59 -350 -69 -350 -86
0 -24 46 -21 216 16 90 20 184 41 209 46 25 5 99 22 165 38 118 29 228 54 292
66 18 4 35 11 38 16 10 15 -41 9 -195 -22z"/>
<path d="M12260 1464 c-120 -22 -184 -33 -338 -59 -210 -34 -298 -57 -286 -76
3 -5 18 -9 34 -9 33 0 312 54 385 75 28 8 104 26 169 40 66 14 121 27 123 29
11 11 -30 11 -87 0z"/>
<path d="M6085 895 c-60 -7 -159 -18 -220 -24 -121 -13 -208 -37 -202 -54 7
-23 99 -17 284 18 204 39 253 52 253 66 0 5 -1 8 -2 8 -2 -1 -52 -7 -113 -14z"/>
<path d="M6183 829 c-24 -4 -109 -15 -190 -24 -283 -30 -396 -56 -377 -87 13
-21 222 10 524 78 178 40 184 42 130 42 -25 0 -64 -4 -87 -9z"/>
<path d="M6100 744 c-342 -52 -530 -91 -530 -111 0 -16 92 -17 160 -2 25 6 72
14 105 19 108 16 553 115 563 125 14 13 -49 7 -298 -31z"/>
<path d="M6240 681 c-63 -10 -200 -30 -305 -45 -346 -49 -435 -68 -435 -96 0
-19 26 -21 111 -12 86 10 818 158 827 167 10 10 -85 3 -198 -14z"/>
<path d="M7417 524 c-4 -4 -7 -79 -7 -166 l0 -158 35 0 35 0 0 70 0 70 70 0
c68 0 70 1 70 25 0 24 -2 25 -70 25 l-70 0 0 40 0 40 81 0 80 0 -3 28 -3 27
-106 3 c-58 1 -108 -1 -112 -4z"/>
<path d="M7687 524 c-4 -4 -7 -79 -7 -166 l0 -158 35 0 35 0 -2 163 -3 162
-25 3 c-14 2 -29 0 -33 -4z"/>
<path d="M7903 518 c-9 -12 -113 -299 -113 -312 0 -3 15 -6 34 -6 29 0 34 4
42 33 10 32 10 32 74 32 64 0 64 0 74 -32 8 -29 13 -33 42 -33 19 0 34 3 34 7
0 14 -103 298 -113 311 -5 6 -22 12 -37 12 -15 0 -32 -6 -37 -12z m56 -115 c7
-27 15 -56 18 -65 5 -15 -1 -18 -37 -18 -36 0 -42 3 -37 18 3 9 11 38 18 65 7
26 16 47 19 47 3 0 12 -21 19 -47z"/>
<path d="M8087 523 c-4 -3 -7 -17 -7 -30 0 -21 4 -23 50 -23 l50 0 0 -135 0
-135 35 0 35 0 0 135 0 135 45 0 c43 0 45 1 45 30 l0 30 -123 0 c-68 0 -127
-3 -130 -7z"/>
<path d="M6050 486 c-118 -18 -228 -36 -245 -40 -16 -5 -114 -20 -216 -36
-182 -27 -238 -42 -247 -67 -2 -9 8 -13 35 -13 54 0 333 45 466 75 61 14 182
41 267 60 85 20 159 40 164 45 6 6 6 10 1 9 -6 -1 -107 -16 -225 -33z"/>
<path d="M8583 513 c-108 -20 -128 -270 -24 -313 42 -17 99 -7 130 25 33 33
37 111 7 144 -24 27 -73 40 -108 30 -24 -6 -28 -5 -28 12 0 20 33 59 50 59 6
0 18 -9 27 -20 18 -21 58 -27 68 -10 8 13 -11 47 -33 58 -24 13 -64 19 -89 15z
m55 -175 c20 -20 15 -76 -7 -88 -11 -5 -24 -10 -30 -10 -19 0 -41 32 -41 59 0
32 16 51 45 51 12 0 26 -5 33 -12z"/>
<path d="M8820 507 c-50 -17 -70 -62 -70 -158 0 -62 4 -82 23 -110 41 -60 128
-63 171 -6 25 34 35 156 16 212 -19 57 -77 83 -140 62z m77 -77 c16 -31 17
-106 2 -148 -12 -34 -43 -47 -64 -26 -30 30 -33 155 -5 189 19 22 52 15 67
-15z"/>
<path d="M9083 513 c-57 -11 -95 -113 -78 -212 20 -120 159 -151 206 -47 33
73 21 192 -23 233 -25 22 -69 33 -105 26z m67 -72 c5 -11 10 -51 10 -90 0 -58
-4 -75 -20 -91 -16 -16 -25 -18 -39 -11 -26 14 -31 32 -31 107 0 77 12 104 45
104 14 0 29 -8 35 -19z"/>
<path d="M5619 256 c-4 -4 -97 -16 -284 -36 -174 -19 -259 -68 -97 -57 78 6
437 79 450 92 3 3 -10 5 -30 5 -19 0 -37 -2 -39 -4z"/>
</g>
</svg>
