<?xml version="1.0" encoding="iso-8859-1"?>
<!-- Uploaded to: SVG Repo, www.svgrepo.com, Generator: SVG Repo Mixer Tools -->
<svg fill="#000000" height="800px" width="800px" version="1.1" id="Layer_1" xmlns="http://www.w3.org/2000/svg" xmlns:xlink="http://www.w3.org/1999/xlink" 
	 viewBox="0 0 512.439 512.439" xml:space="preserve">
<g>
	<g>
		<path d="M345.515,156.201c-0.937-1.015-1.666-1.883-2.482-2.803v-30.946c5.849-51.773,25.383-109.976,25.583-110.557
			c0.859-2.551,0.486-5.346-0.998-7.585c-1.493-2.239-3.931-3.662-6.613-3.844c-37.48-2.629-72.678,6.335-104.734,26.433
			C228.466,9.422,193.789-2.554,151.51,0.466c-2.638,0.174-5.051,1.553-6.543,3.74c-1.501,2.178-1.918,4.938-1.137,7.463
			c0.095,0.33,4.035,13.234,8.791,32.161h16.853c0.295,0,0.59,0.017,0.876,0.043C251.246,52.1,293.152,114.746,315.671,148.4
			l1.432,2.126c-5.571,0.816-12.149,1.736-19.152,2.612c-21.582-32.013-60.043-84.749-128.92-91.952h-12.245
			c6.482,28.377,12.861,63.774,12.678,92.056c-0.738,0.79-1.38,1.527-2.213,2.404c-21.539,22.441-66.352,69.137-23.734,332.149
			c0.538,3.306,2.933,6.005,6.144,6.942c1.475,0.434,22.979,6.613,49.629,11.55l-3.193-7.984c-0.156-0.391-0.278-0.79-0.382-1.206
			c-44.153-184.693-28.802-261.354,18.05-326.552c6.569,0.807,13.416,1.553,20.063,2.143c-48.354,62.915-65.64,134.3-21.383,319.757
			l6.847,17.104c12.409,1.718,25.131,2.89,36.925,2.89c11.811,0,24.55-1.171,36.977-2.898l6.838-17.096
			c44.258-185.439,26.98-256.833-21.374-319.757c6.647-0.581,13.494-1.336,20.055-2.143c46.861,65.198,62.212,141.85,18.05,326.552
			c-0.095,0.417-0.226,0.816-0.382,1.206l-3.193,7.975c26.641-4.938,48.119-11.108,49.595-11.542
			c3.211-0.937,5.597-3.627,6.135-6.934C411.441,227.577,366.915,179.371,345.515,156.201z M328.879,98.779
			c-0.095-0.139-0.208-0.286-0.304-0.425c-1.354-1.892-2.768-3.844-4.27-5.875c-0.382-0.521-0.781-1.041-1.172-1.562
			c-1.085-1.458-2.213-2.942-3.384-4.452c-0.79-1.033-1.588-2.057-2.412-3.107c-0.521-0.659-1.076-1.336-1.614-2.005
			c-1.918-2.386-3.914-4.808-6.014-7.272c-0.078-0.087-0.156-0.174-0.226-0.269c-10.318-12.097-22.745-24.793-37.593-36.187
			c23.769-13.477,49.36-20.263,76.331-20.263h0.417C343.64,33.59,334.511,65.482,328.879,98.779z"/>
	</g>
</g>
</svg>